{
  "accessors": [
    {
      "bufferView": 2,
      "componentType": 5126,
      "count": 65532,
      "max": [
        0.9999650120735168,
        0.039872899651527405,
        0.27033400535583496
      ],
      "min": [
        -0.9831839799880981,
        -0.05055740103125572,
        -0.27033400535583496
      ],
      "type": "VEC3"
    },
    {
      "bufferView": 2,
      "byteOffset": 786384,
      "componentType": 5126,
      "count": 65532,
      "max": [
        0.9999930262565613,
        1.0,
        0.999995231628418
      ],
      "min": [
        -1.0,
        -1.0,
        -0.9999925494194031
      ],
      "type": "VEC3"
    },
    {
      "bufferView": 3,
      "componentType": 5126,
      "count": 65532,
      "max": [
        1.0,
        0.9995352625846863,
        0.9999991059303284,
        1.0
      ],
      "min": [
        -1.0,
        -1.0,
        -0.9987916350364685,
        -1.0
      ],
      "type": "VEC4"
    },
    {
      "bufferView": 1,
      "componentType": 5126,
      "count": 65532,
      "max": [
        0.9999359846115112,
        0.9991179704666138
      ],
      "min": [
        -4.708770120487316e-06,
        5.629609859170159e-06
      ],
      "type": "VEC2"
    },
    {
      "bufferView": 0,
      "componentType": 5125,
      "count": 361737,
      "type": "SCALAR"
    },
    {
      "bufferView": 2,
      "byteOffset": 1572768,
      "componentType": 5126,
      "count": 65532,
      "max": [
        1.0,
        0.04763440042734146,
        0.2249639928340912
      ],
      "min": [
        -0.9194639921188354,
        -0.043425798416137695,
        -0.14059899747371674
      ],
      "type": "VEC3"
    },
    {
      "bufferView": 2,
      "byteOffset": 2359152,
      "componentType": 5126,
      "count": 65532,
      "max": [
        1.0,
        1.0,
        1.0
      ],
      "min": [
        -1.0,
        -1.0,
        -1.0
      ],
      "type": "VEC3"
    },
    {
      "bufferView": 3,
      "byteOffset": 1048512,
      "componentType": 5126,
      "count": 65532,
      "max": [
        1.0,
        1.0,
        1.0,
        1.0
      ],
      "min": [
        -1.0,
        -1.0,
        -1.0,
        -1.0
      ],
      "type": "VEC4"
    },
    {
      "bufferView": 1,
      "byteOffset": 524256,
      "componentType": 5126,
      "count": 65532,
      "max": [
        0.999692976474762,
        0.6323609948158264
      ],
      "min": [
        0.5001540184020996,
        0.00025469998945482075
      ],
      "type": "VEC2"
    },
    {
      "bufferView": 0,
      "byteOffset": 1446948,
      "componentType": 5125,
      "count": 345852,
      "type": "SCALAR"
    },
    {
      "bufferView": 2,
      "byteOffset": 3145536,
      "componentType": 5126,
      "count": 65532,
      "max": [
        0.9628459811210632,
        0.05147380009293556,
        0.2047329992055893
      ],
      "min": [
        -0.9474260210990906,
        -0.02050900086760521,
        -0.08792520314455032
      ],
      "type": "VEC3"
    },
    {
      "bufferView": 2,
      "byteOffset": 3931920,
      "componentType": 5126,
      "count": 65532,
      "max": [
        1.0,
        1.0,
        1.0
      ],
      "min": [
        -1.0,
        -1.0,
        -1.0
      ],
      "type": "VEC3"
    },
    {
      "bufferView": 3,
      "byteOffset": 2097024,
      "componentType": 5126,
      "count": 65532,
      "max": [
        1.0,
        1.0,
        1.0,
        1.0
      ],
      "min": [
        -1.0,
        -1.0,
        -1.0,
        -1.0
      ],
      "type": "VEC4"
    },
    {
      "bufferView": 1,
      "byteOffset": 1048512,
      "componentType": 5126,
      "count": 65532,
      "max": [
        0.9739729762077332,
        0.4988900125026703
      ],
      "min": [
        0.5011190176010132,
        0.03580459952354431
      ],
      "type": "VEC2"
    },
    {
      "bufferView": 0,
      "byteOffset": 2830356,
      "componentType": 5125,
      "count": 295752,
      "type": "SCALAR"
    },
    {
      "bufferView": 2,
      "byteOffset": 4718304,
      "componentType": 5126,
      "count": 65532,
      "max": [
        0.6661750078201294,
        0.04164469987154007,
        0.007941129617393017
      ],
      "min": [
        -0.9092079997062683,
        0.034925200045108795,
        -0.024584900587797165
      ],
      "type": "VEC3"
    },
    {
      "bufferView": 2,
      "byteOffset": 5504688,
      "componentType": 5126,
      "count": 65532,
      "max": [
        0.2421409636735916,
        0.8583889007568359,
        0.9839375019073486
      ],
      "min": [
        -0.7771301865577698,
        -0.868604838848114,
        -0.9845413565635681
      ],
      "type": "VEC3"
    },
    {
      "bufferView": 3,
      "byteOffset": 3145536,
      "componentType": 5126,
      "count": 65532,
      "max": [
        0.8548713326454163,
        0.7848846316337585,
        0.9326782822608948,
        1.0
      ],
      "min": [
        -0.8141010999679565,
        -0.9980792999267578,
        -0.8782443404197693,
        -1.0
      ],
      "type": "VEC4"
    },
    {
      "bufferView": 1,
      "byteOffset": 1572768,
      "componentType": 5126,
      "count": 65532,
      "max": [
        0.9605439901351929,
        0.03662560135126114
      ],
      "min": [
        0.5386120080947876,
        0.03452900052070618
      ],
      "type": "VEC2"
    },
    {
      "bufferView": 0,
      "byteOffset": 4013364,
      "componentType": 5125,
      "count": 260367,
      "type": "SCALAR"
    },
    {
      "bufferView": 2,
      "byteOffset": 6291072,
      "componentType": 5126,
      "count": 65532,
      "max": [
        0.5207160115242004,
        0.042048998177051544,
        -0.02277030050754547
      ],
      "min": [
        -0.9091320037841797,
        0.03572830185294151,
        -0.061824601143598557
      ],
      "type": "VEC3"
    },
    {
      "bufferView": 2,
      "byteOffset": 7077456,
      "componentType": 5126,
      "count": 65532,
      "max": [
        0.1970909982919693,
        0.8578050136566162,
        0.9854746460914612
      ],
      "min": [
        -0.7463770508766174,
        -0.8589003086090088,
        -0.9824697375297546
      ],
      "type": "VEC3"
    },
    {
      "bufferView": 3,
      "byteOffset": 4194048,
      "componentType": 5126,
      "count": 65532,
      "max": [
        0.8548142910003662,
        0.6173058748245239,
        0.8789130449295044,
        1.0
      ],
      "min": [
        -0.8140616416931152,
        -0.9965072870254517,
        -0.8793822526931763,
        -1.0
      ],
      "type": "VEC4"
    },
    {
      "bufferView": 1,
      "byteOffset": 2097024,
      "componentType": 5126,
      "count": 65532,
      "max": [
        0.9967640042304993,
        0.03507370129227638
      ],
      "min": [
        0.5032830238342285,
        0.03379650041460991
      ],
      "type": "VEC2"
    },
    {
      "bufferView": 0,
      "byteOffset": 5054832,
      "componentType": 5125,
      "count": 260178,
      "type": "SCALAR"
    },
    {
      "bufferView": 2,
      "byteOffset": 7863840,
      "componentType": 5126,
      "count": 65532,
      "max": [
        0.6654080152511597,
        0.04179979860782623,
        0.0013051499845460057
      ],
      "min": [
        -0.9091089963912964,
        0.034697599709033966,
        -0.04226269945502281
      ],
      "type": "VEC3"
    },
    {
      "bufferView": 2,
      "byteOffset": 8650224,
      "componentType": 5126,
      "count": 65532,
      "max": [
        0.24769209325313568,
        0.85796719789505,
        0.9855332374572754
      ],
      "min": [
        -0.7816121578216553,
        -0.8681129813194275,
        -0.9845492243766785
      ],
      "type": "VEC3"
    },
    {
      "bufferView": 3,
      "byteOffset": 5242560,
      "componentType": 5126,
      "count": 65532,
      "max": [
        0.8548690676689148,
        0.7848844528198242,
        0.9325989484786987,
        1.0
      ],
      "min": [
        -0.8140760064125061,
        -0.9977509379386902,
        -0.8783875107765198,
        -1.0
      ],
      "type": "VEC4"
    },
    {
      "bufferView": 1,
      "byteOffset": 2621280,
      "componentType": 5126,
      "count": 65532,
      "max": [
        0.9967640042304993,
        0.03662560135126114
      ],
      "min": [
        0.5032830238342285,
        0.03379650041460991
      ],
      "type": "VEC2"
    },
    {
      "bufferView": 0,
      "byteOffset": 6095544,
      "componentType": 5125,
      "count": 259971,
      "type": "SCALAR"
    },
    {
      "bufferView": 2,
      "byteOffset": 9436608,
      "componentType": 5126,
      "count": 65532,
      "max": [
        0.6657230257987976,
        0.04104730114340782,
        0.040108099579811096
      ],
      "min": [
        -0.9084789752960205,
        0.03512199968099594,
        -0.004824480041861534
      ],
      "type": "VEC3"
    },
    {
      "bufferView": 2,
      "byteOffset": 10222992,
      "componentType": 5126,
      "count": 65532,
      "max": [
        0.2426580935716629,
        0.8589661717414856,
        0.9847471117973328
      ],
      "min": [
        -0.7779941558837891,
        -0.8689500093460083,
        -0.9845763444900513
      ],
      "type": "VEC3"
    },
    {
      "bufferView": 3,
      "byteOffset": 6291072,
      "componentType": 5126,
      "count": 65532,
      "max": [
        0.8660867810249329,
        0.8059410452842712,
        0.94193035364151,
        1.0
      ],
      "min": [
        -0.7953801155090332,
        -0.9965869784355164,
        -0.896438717842102,
        1.0
      ],
      "type": "VEC4"
    },
    {
      "bufferView": 1,
      "byteOffset": 3145536,
      "componentType": 5126,
      "count": 65532,
      "max": [
        0.9193530082702637,
        0.03662560135126114
      ],
      "min": [
        0.5386120080947876,
        0.03580459952354431
      ],
      "type": "VEC2"
    },
    {
      "bufferView": 0,
      "byteOffset": 7135428,
      "componentType": 5125,
      "count": 260436,
      "type": "SCALAR"
    },
    {
      "bufferView": 2,
      "byteOffset": 11009376,
      "componentType": 5126,
      "count": 65532,
      "max": [
        0.953311026096344,
        0.03897929936647415,
        0.21704599261283875
      ],
      "min": [
        -1.0,
        -0.030179599300026894,
        -0.20488199591636658
      ],
      "type": "VEC3"
    },
    {
      "bufferView": 2,
      "byteOffset": 11795760,
      "componentType": 5126,
      "count": 65532,
      "max": [
        1.0,
        1.0,
        1.0
      ],
      "min": [
        -1.0,
        -1.0,
        -1.0
      ],
      "type": "VEC3"
    },
    {
      "bufferView": 3,
      "byteOffset": 7339584,
      "componentType": 5126,
      "count": 65532,
      "max": [
        0.9999964237213135,
        1.0,
        0.9999991059303284,
        1.0
      ],
      "min": [
        -0.9996327757835388,
        -1.0,
        -1.0,
        -1.0
      ],
      "type": "VEC4"
    },
    {
      "bufferView": 1,
      "byteOffset": 3669792,
      "componentType": 5126,
      "count": 65532,
      "max": [
        0.9711610078811646,
        0.4988900125026703
      ],
      "min": [
        0.5011190176010132,
        0.03580459952354431
      ],
      "type": "VEC2"
    },
    {
      "bufferView": 0,
      "byteOffset": 8177172,
      "componentType": 5125,
      "count": 271089,
      "type": "SCALAR"
    },
    {
      "bufferView": 2,
      "byteOffset": 12582144,
      "componentType": 5126,
      "count": 28332,
      "max": [
        0.9660660028457642,
        0.05147380009293556,
        0.19597600400447845
      ],
      "min": [
        -0.9940149784088135,
        -0.02270450070500374,
        -0.08790379762649536
      ],
      "type": "VEC3"
    },
    {
      "bufferView": 2,
      "byteOffset": 12922128,
      "componentType": 5126,
      "count": 28332,
      "max": [
        1.0,
        1.0,
        1.0
      ],
      "min": [
        -1.0,
        -1.0,
        -1.0
      ],
      "type": "VEC3"
    },
    {
      "bufferView": 3,
      "byteOffset": 8388096,
      "componentType": 5126,
      "count": 28332,
      "max": [
        1.0,
        1.0,
        1.0,
        1.0
      ],
      "min": [
        -1.0,
        -0.9999997019767761,
        -1.0,
        -1.0
      ],
      "type": "VEC4"
    },
    {
      "bufferView": 1,
      "byteOffset": 4194048,
      "componentType": 5126,
      "count": 28332,
      "max": [
        0.9739729762077332,
        0.4901370108127594
      ],
      "min": [
        0.5033029913902283,
        0.04632069915533066
      ],
      "type": "VEC2"
    },
    {
      "bufferView": 0,
      "byteOffset": 9261528,
      "componentType": 5125,
      "count": 144330,
      "type": "SCALAR"
    }
  ],
  "asset": {
    "extras": {
      "author": "serefatilla (https://sketchfab.com/serefatilla)",
      "license": "CC-BY-4.0 (http://creativecommons.org/licenses/by/4.0/)",
      "source": "https://sketchfab.com/3d-models/custom-made-bass-guitar-54b2e94353d843eb8daba50b62edd78f",
      "title": "Custom-made Bass Guitar"
    },
    "generator": "Sketchfab-12.66.0",
    "version": "2.0"
  },
  "bufferViews": [
    {
      "buffer": 0,
      "byteLength": 9838848,
      "name": "floatBufferViews",
      "target": 34963
    },
    {
      "buffer": 0,
      "byteLength": 4420704,
      "byteOffset": 9838848,
      "byteStride": 8,
      "name": "floatBufferViews",
      "target": 34962
    },
    {
      "buffer": 0,
      "byteLength": 13262112,
      "byteOffset": 14259552,
      "byteStride": 12,
      "name": "floatBufferViews",
      "target": 34962
    },
    {
      "buffer": 0,
      "byteLength": 8841408,
      "byteOffset": 27521664,
      "byteStride": 16,
      "name": "floatBufferViews",
      "target": 34962
    }
  ],
  "buffers": [
    {
      "byteLength": 36363072,
      "uri": "scene.bin"
    }
  ],
  "images": [
    {
      "uri": "textures/DefaultMaterial_baseColor.jpeg"
    },
    {
      "uri": "textures/DefaultMaterial_metallicRoughness.png"
    },
    {
      "uri": "textures/DefaultMaterial_normal.png"
    }
  ],
  "materials": [
    {
      "name": "DefaultMaterial",
      "normalTexture": {
        "index": 2
      },
      "occlusionTexture": {
        "index": 1
      },
      "pbrMetallicRoughness": {
        "baseColorTexture": {
          "index": 0
        },
        "metallicRoughnessTexture": {
          "index": 1
        }
      }
    }
  ],
  "meshes": [
    {
      "name": "defaultMaterial",
      "primitives": [
        {
          "attributes": {
            "NORMAL": 1,
            "POSITION": 0,
            "TANGENT": 2,
            "TEXCOORD_0": 3
          },
          "indices": 4,
          "material": 0,
          "mode": 4
        }
      ]
    },
    {
      "name": "defaultMaterial",
      "primitives": [
        {
          "attributes": {
            "NORMAL": 6,
            "POSITION": 5,
            "TANGENT": 7,
            "TEXCOORD_0": 8
          },
          "indices": 9,
          "material": 0,
          "mode": 4
        }
      ]
    },
    {
      "name": "defaultMaterial",
      "primitives": [
        {
          "attributes": {
            "NORMAL": 11,
            "POSITION": 10,
            "TANGENT": 12,
            "TEXCOORD_0": 13
          },
          "indices": 14,
          "material": 0,
          "mode": 4
        }
      ]
    },
    {
      "name": "defaultMaterial",
      "primitives": [
        {
          "attributes": {
            "NORMAL": 16,
            "POSITION": 15,
            "TANGENT": 17,
            "TEXCOORD_0": 18
          },
          "indices": 19,
          "material": 0,
          "mode": 4
        }
      ]
    },
    {
      "name": "defaultMaterial",
      "primitives": [
        {
          "attributes": {
            "NORMAL": 21,
            "POSITION": 20,
            "TANGENT": 22,
            "TEXCOORD_0": 23
          },
          "indices": 24,
          "material": 0,
          "mode": 4
        }
      ]
    },
    {
      "name": "defaultMaterial",
      "primitives": [
        {
          "attributes": {
            "NORMAL": 26,
            "POSITION": 25,
            "TANGENT": 27,
            "TEXCOORD_0": 28
          },
          "indices": 29,
          "material": 0,
          "mode": 4
        }
      ]
    },
    {
      "name": "defaultMaterial",
      "primitives": [
        {
          "attributes": {
            "NORMAL": 31,
            "POSITION": 30,
            "TANGENT": 32,
            "TEXCOORD_0": 33
          },
          "indices": 34,
          "material": 0,
          "mode": 4
        }
      ]
    },
    {
      "name": "defaultMaterial",
      "primitives": [
        {
          "attributes": {
            "NORMAL": 36,
            "POSITION": 35,
            "TANGENT": 37,
            "TEXCOORD_0": 38
          },
          "indices": 39,
          "material": 0,
          "mode": 4
        }
      ]
    },
    {
      "name": "defaultMaterial",
      "primitives": [
        {
          "attributes": {
            "NORMAL": 41,
            "POSITION": 40,
            "TANGENT": 42,
            "TEXCOORD_0": 43
          },
          "indices": 44,
          "material": 0,
          "mode": 4
        }
      ]
    }
  ],
  "nodes": [
    {
      "children": [
        1
      ],
      "matrix": [
        1.0,
        0.0,
        0.0,
        0.0,
        0.0,
        2.220446049250313e-16,
        -1.0,
        0.0,
        0.0,
        1.0,
        2.220446049250313e-16,
        0.0,
        -6.660140206804499e-05,
        7.000000135838819e-09,
        -0.0033571268431842327,
        1.0
      ],
      "name": "Sketchfab_model"
    },
    {
      "children": [
        2
      ],
      "matrix": [
        1.0,
        0.0,
        0.0,
        0.0,
        0.0,
        -4.371139006309477e-08,
        0.999999999999999,
        0.0,
        0.0,
        -0.999999999999999,
        -4.371139006309477e-08,
        0.0,
        0.0,
        0.0,
        0.0,
        1.0
      ],
      "name": "Collada visual scene group"
    },
    {
      "children": [
        3,
        4,
        5,
        6,
        7,
        8,
        9,
        10,
        11
      ],
      "name": "BassGuitar.001"
    },
    {
      "mesh": 0,
      "name": "defaultMaterial"
    },
    {
      "mesh": 1,
      "name": "defaultMaterial"
    },
    {
      "mesh": 2,
      "name": "defaultMaterial"
    },
    {
      "mesh": 3,
      "name": "defaultMaterial"
    },
    {
      "mesh": 4,
      "name": "defaultMaterial"
    },
    {
      "mesh": 5,
      "name": "defaultMaterial"
    },
    {
      "mesh": 6,
      "name": "defaultMaterial"
    },
    {
      "mesh": 7,
      "name": "defaultMaterial"
    },
    {
      "mesh": 8,
      "name": "defaultMaterial"
    }
  ],
  "samplers": [
    {
      "magFilter": 9729,
      "minFilter": 9987,
      "wrapS": 10497,
      "wrapT": 10497
    }
  ],
  "scene": 0,
  "scenes": [
    {
      "name": "Sketchfab_Scene",
      "nodes": [
        0
      ]
    }
  ],
  "textures": [
    {
      "sampler": 0,
      "source": 0
    },
    {
      "sampler": 0,
      "source": 1
    },
    {
      "sampler": 0,
      "source": 2
    }
  ]
}
